# xmcd
#
# Track frame offsets: 
#        150
#        5188
#        27075
#        56163
#        77550
#        102600
#        118575
#        138600
#        159900
#
# Disc length: 2717 seconds
#
# Revision: 0
# Processed by: cddbd v1.5.2PL0 Copyright (c) Steve Scherf et al.
# Submitted via: ExactAudioCopy v0.95b4
#
DISCID=740a9b09
DTITLE=Combo - Warning
DYEAR=1992
DGENRE=General Blues
TTITLE0=Russian Orthodox Resurrection Anthem
TTITLE1=They Were Still Playing Ball And Singing...
TTITLE2=And The Rain Washes Away My Tears
TTITLE3=Cat's Cradle (To Kurt Vonnegut)
TTITLE4=Three Minutes Before Sunrise
TTITLE5=Clouds In A Shoe Polish Can
TTITLE6=Fair Wind For A Regatta
TTITLE7=Maybe, I'm Wrong, But...
TTITLE8=Love And Faith Are Gone, Only Hope Hangs On...
EXTD=
EXTT0=
EXTT1=
EXTT2=
EXTT3=
EXTT4=
EXTT5=
EXTT6=
EXTT7=
EXTT8=
PLAYORDER=
